<?xml version="1.0" standalone="no"?>
<!DOCTYPE svg PUBLIC "-//W3C//DTD SVG 20010904//EN"
 "http://www.w3.org/TR/2001/REC-SVG-20010904/DTD/svg10.dtd">
<svg version="1.0" xmlns="http://www.w3.org/2000/svg"
 width="512.000000pt" height="512.000000pt" viewBox="0 0 512.000000 512.000000"
 preserveAspectRatio="xMidYMid meet">

<g transform="translate(0.000000,512.000000) scale(0.100000,-0.100000)"
fill="#000000" stroke="none">
<path d="M2446 4310 c-81 -16 -150 -30 -152 -32 -8 -9 -225 -690 -221 -695 5
-5 655 112 662 119 3 2 -22 145 -53 318 -44 238 -62 315 -72 316 -8 1 -82 -11
-164 -26z"/>
<path d="M1635 4160 c-49 -9 -160 -29 -245 -44 -85 -16 -159 -32 -165 -37 -9
-9 -235 -691 -230 -697 2 -2 283 47 464 81 l64 12 113 350 c63 193 114 351
114 353 0 4 -21 1 -115 -18z"/>
<path d="M330 3921 c-168 -32 -310 -59 -316 -62 -7 -3 8 -107 47 -319 l59
-315 0 -932 0 -933 739 0 739 0 9 -67 c6 -38 50 -344 99 -680 l89 -613 183 0
c170 0 182 1 182 18 0 10 -36 414 -80 897 -44 483 -80 882 -80 887 0 4 -117 8
-259 8 l-260 0 -20 26 c-25 31 -27 61 -6 91 13 18 12 25 -8 64 -18 36 -22 61
-22 134 0 84 2 94 34 153 66 122 168 182 306 182 58 0 75 3 75 14 0 8 9 35 20
60 58 137 232 229 373 197 l48 -11 49 53 c70 76 149 111 252 111 65 0 86 -5
137 -31 l61 -30 0 194 0 193 -657 1 c-362 1 -959 0 -1328 -1 -369 -1 -667 1
-663 5 4 4 75 20 158 35 83 15 153 30 156 33 3 3 57 161 119 351 105 323 111
346 91 345 -11 -1 -158 -27 -326 -58z m1204 -1172 c20 -16 26 -29 26 -59 0
-30 -6 -43 -26 -59 -26 -21 -35 -21 -574 -21 -539 0 -548 0 -574 21 -20 16
-26 29 -26 59 0 30 6 43 26 59 26 21 35 21 574 21 539 0 548 0 574 -21z m-379
-424 c33 -32 33 -78 0 -110 l-24 -25 -361 0 -361 0 -24 25 c-35 34 -34 86 1
114 26 20 38 21 386 21 l359 0 24 -25z"/>
</g>
</svg>
